<svg width="6.82666" height="6.82666" xmlns="http://www.w3.org/2000/svg">

 <g>
  <title>background</title>
  <rect fill="none" id="canvas_background" height="402" width="582" y="-1" x="-1"/>
 </g>
 <g>
  <title>Layer 1</title>
  <rect fill="none" id="svg_3" width="6.82666" height="6.82666" class="fil1"/>
  <path fill-rule="nonzero" fill="#fcfeff" id="svg_1" d="m5.91083,1.2175c0.0833,-0.0833 0.0833,-0.21837 0,-0.30167c-0.0833,-0.0833 -0.21837,-0.0833 -0.30167,0l-4.69334,4.69333c-0.0833,0.0833 -0.0833,0.21837 0,0.30167c0.0833,0.0833 0.21837,0.0833 0.30167,0l4.69334,-4.69333z" class="fil0"/>
  <path fill-rule="nonzero" fill="#ffffff" id="svg_2" d="m1.2175,0.91583c-0.0833,-0.08331 -0.21837,-0.08331 -0.30167,0c-0.0833,0.0833 -0.0833,0.21836 0,0.30167l4.69334,4.69333c0.0833,0.0833 0.21837,0.0833 0.30167,0c0.0833,-0.08331 0.0833,-0.21837 0,-0.30167l-4.69334,-4.69333z" class="fil0"/>
 </g>
</svg>