<svg width="38" height="43" xmlns="http://www.w3.org/2000/svg">

 <g>
  <title>background</title>
  <rect fill="none" id="canvas_background" height="402" width="582" y="-1" x="-1"/>
 </g>
 <g>
  <title>Layer 1</title>
  <path id="svg_2" fill="#ffffff" d="m30.5,0l-23,0c-4.136,0 -7.5,3.288 -7.5,7.33l0,28.34c0,4.043 3.364,7.33 7.5,7.33l23,0c4.136,0 7.5,-3.287 7.5,-7.33l0,-28.34c0,-4.042 -3.364,-7.33 -7.5,-7.33zm2.5,35.67c0,1.348 -1.121,2.33 -2.5,2.33l-23,0c-1.378,0 -2.5,-0.982 -2.5,-2.33l0,-28.34c0,-1.348 1.122,-2.33 2.5,-2.33l23,0c1.379,0 2.5,0.982 2.5,2.33l0,28.34z"/>
  <path id="svg_3" fill="#ffffff" d="m28,16l-18,0c-0.552,0 -1,0.448 -1,1l0,2c0,0.552 0.448,1 1,1l18,0c0.553,0 1,-0.448 1,-1l0,-2c0,-0.552 -0.447,-1 -1,-1z"/>
  <path id="svg_4" fill="#ffffff" d="m28,23l-18,0c-0.552,0 -1,0.447 -1,1l0,2c0,0.553 0.448,1 1,1l18,0c0.553,0 1,-0.447 1,-1l0,-2c0,-0.553 -0.447,-1 -1,-1z"/>
  <path id="svg_5" fill="#ffffff" d="m28,30l-18,0c-0.552,0 -1,0.447 -1,1l0,2c0,0.553 0.448,1 1,1l18,0c0.553,0 1,-0.447 1,-1l0,-2c0,-0.553 -0.447,-1 -1,-1z"/>
  <path id="svg_6" fill="#ffffff" d="m28,9l-18,0c-0.552,0 -1,0.448 -1,1l0,2c0,0.552 0.448,1 1,1l18,0c0.553,0 1,-0.448 1,-1l0,-2c0,-0.552 -0.447,-1 -1,-1z"/>
 </g>
</svg>